External Loads File
version=1
nRows=62
nColumns=13
Range=5.000000e-03-10 seconds
endheader
time 	forceRightX 	forceRightY 	forceRightZ 	pointRightX 	pointRightY 	pointRightZ 	forceLeftX 	forceLeftY 	forceLeftZ 	pointLeftX 	pointLeftY 	pointLeftZ 		
2.505000 90.128589 195.232546 -0.000000 0.180651 0.375681 -0.138597 -449.003231 1474.582950 -0.000000 0.409400 0.226245 -0.370244
2.510000 79.323957 202.249941 -0.000000 0.186501 0.383184 -0.138309 -425.250323 1538.258921 -0.000000 0.403952 0.218638 -0.370214
2.515000 68.561078 210.159858 -0.000000 0.192586 0.390281 -0.138083 -390.909169 1595.359933 -0.000000 0.398133 0.211160 -0.370296
2.520000 58.430252 219.005597 -0.000000 0.198965 0.397483 -0.137817 -345.059866 1643.331680 -0.000000 0.391867 0.204220 -0.370376
2.525000 48.950284 228.900109 -0.000000 0.205598 0.404179 -0.137759 -290.828179 1678.796972 -0.000000 0.385355 0.197577 -0.370463
2.530000 40.675111 239.713354 -0.000000 0.212474 0.410924 -0.137662 -227.056660 1699.496594 -0.000000 0.378535 0.191255 -0.370586
2.535000 33.473155 251.422903 -0.000000 0.219593 0.417397 -0.137674 -157.592145 1702.760482 -0.000000 0.371425 0.185425 -0.370759
2.540000 27.509720 263.921077 -0.000000 0.226971 0.423581 -0.137715 -84.383712 1687.056470 -0.000000 0.364056 0.179952 -0.370963
2.545000 22.804573 277.049329 -0.000000 0.234571 0.429571 -0.137734 -10.845357 1651.734318 -0.000000 0.356483 0.174977 -0.371196
2.550000 19.257945 290.498308 -0.000000 0.242427 0.434997 -0.137496 58.793185 1597.394538 -0.000000 0.348841 0.170471 -0.371452
2.555000 16.975222 303.767164 -0.000000 0.250262 0.440214 -0.137818 121.996341 1525.868410 -0.000000 0.341014 0.166405 -0.371668
2.560000 16.190923 316.228855 -0.000000 0.258640 0.445073 -0.137669 177.659875 1439.837763 -0.000000 0.333248 0.162898 -0.371933
2.565000 15.913716 327.283726 -0.000000 0.266524 0.449559 -0.137965 220.482068 1343.288181 -0.000000 0.325408 0.159718 -0.372102
2.570000 16.863015 336.330419 -0.000000 0.274886 0.453641 -0.137998 254.250922 1239.250010 -0.000000 0.317519 0.157107 -0.372420
2.575000 18.297007 343.032622 -0.000000 0.283218 0.457244 -0.138006 277.348978 1131.205582 -0.000000 0.309535 0.155013 -0.372638
2.580000 20.260765 347.251263 -0.000000 0.291823 0.460427 -0.137784 291.768340 1021.751336 -0.000000 0.301504 0.153377 -0.372912
2.585000 22.044872 349.109901 -0.000000 0.300277 0.463074 -0.137574 297.334516 914.012147 -0.000000 0.293428 0.152262 -0.373210
2.590000 23.628770 348.861756 -0.000000 0.308667 0.465324 -0.137378 296.166922 810.461752 -0.000000 0.285270 0.151581 -0.373484
2.595000 24.971657 346.879057 -0.000000 0.316993 0.467148 -0.137285 290.113761 713.356455 -0.000000 0.276977 0.151446 -0.373739
2.600000 25.881607 343.642021 -0.000000 0.325161 0.468489 -0.137427 280.466912 624.687624 -0.000000 0.268618 0.151810 -0.374123
2.605000 26.563909 339.677363 -0.000000 0.333324 0.469413 -0.137352 268.899294 545.486521 -0.000000 0.260235 0.152697 -0.374416
2.610000 27.021568 335.556033 -0.000000 0.341285 0.469532 -0.137062 256.186186 476.192801 -0.000000 0.251907 0.154067 -0.374694
2.615000 27.571798 331.786445 -0.000000 0.349130 0.469036 -0.136923 243.203843 416.423722 -0.000000 0.243631 0.155928 -0.375065
2.620000 28.220724 328.812585 -0.000000 0.356795 0.467894 -0.136531 230.174108 365.712406 -0.000000 0.235641 0.158337 -0.375278
2.625000 29.161498 326.962976 -0.000000 0.364215 0.466344 -0.136176 217.487606 323.226225 -0.000000 0.227770 0.161134 -0.375477
2.630000 30.801604 326.443782 -0.000000 0.371451 0.464122 -0.135934 205.642008 287.820803 -0.000000 0.220016 0.164501 -0.375740
2.635000 32.743619 327.421744 -0.000000 0.378237 0.461374 -0.135682 194.358674 258.765904 -0.000000 0.212576 0.168314 -0.375967
2.640000 35.202901 329.911127 -0.000000 0.384806 0.458232 -0.135365 183.954191 234.927664 -0.000000 0.205390 0.172596 -0.376219
2.645000 38.057158 333.913370 -0.000000 0.391120 0.454616 -0.135204 174.481996 215.477881 -0.000000 0.198461 0.177258 -0.376424
2.650000 41.090429 339.433583 -0.000000 0.396959 0.450363 -0.135024 166.003809 199.759813 -0.000000 0.191841 0.182343 -0.376621
2.655000 44.464754 346.411785 -0.000000 0.402541 0.445485 -0.134862 158.844649 187.054726 -0.000000 0.185507 0.187955 -0.376840
2.660000 47.728744 354.816598 -0.000000 0.407824 0.440353 -0.134674 152.976506 177.051647 -0.000000 0.179414 0.193934 -0.377046
2.665000 50.644712 364.557965 -0.000000 0.412633 0.434755 -0.134497 148.488937 169.404412 -0.000000 0.173752 0.200326 -0.377280
2.670000 53.025192 375.551859 -0.000000 0.416910 0.428732 -0.134230 145.432908 163.785495 -0.000000 0.168412 0.207062 -0.377463
2.675000 55.199659 387.692399 -0.000000 0.421134 0.422081 -0.134177 143.990456 159.682315 -0.000000 0.163452 0.214187 -0.377672
2.680000 56.200092 401.120238 -0.000000 0.424758 0.415082 -0.133948 143.714056 157.068690 -0.000000 0.158880 0.221622 -0.377802
2.685000 55.842047 415.907041 -0.000000 0.428085 0.407722 -0.133675 144.432437 155.611779 -0.000000 0.154791 0.229296 -0.377931
2.690000 54.293485 432.080758 -0.000000 0.431173 0.399834 -0.133543 146.033657 154.881640 -0.000000 0.151173 0.237368 -0.378043
2.695000 51.030015 449.744846 -0.000000 0.433809 0.391471 -0.133548 148.115348 154.713925 -0.000000 0.147970 0.245636 -0.378185
2.700000 45.780029 468.962188 -0.000000 0.436137 0.382813 -0.133382 150.376279 154.891760 -0.000000 0.145256 0.254086 -0.378204
2.705000 38.630692 489.794134 -0.000000 0.438010 0.373699 -0.133196 152.657309 155.126975 -0.000000 0.143160 0.262701 -0.378320
2.710000 29.028015 512.430008 -0.000000 0.439571 0.364686 -0.133037 154.609072 155.345687 -0.000000 0.141632 0.271442 -0.378338
2.715000 17.699585 537.061761 -0.000000 0.440888 0.355434 -0.132974 156.252274 155.047604 -0.000000 0.140682 0.280254 -0.378488
2.720000 6.139798 563.989582 -0.000000 0.441405 0.345249 -0.132741 157.722219 153.498144 -0.000000 0.140326 0.289121 -0.378565
2.725000 -6.677391 593.565835 -0.000000 0.441560 0.335347 -0.132473 158.371349 150.706478 -0.000000 0.140507 0.298132 -0.378549
2.730000 -19.424198 625.961195 -0.000000 0.441305 0.325239 -0.132304 158.162914 146.127375 -0.000000 0.141278 0.307145 -0.378608
2.735000 -31.687145 661.184629 -0.000000 0.440489 0.315149 -0.132225 156.771831 139.679186 -0.000000 0.142586 0.316170 -0.378644
2.740000 -42.304140 699.113921 -0.000000 0.439191 0.305011 -0.131976 154.037252 131.341830 -0.000000 0.144634 0.325257 -0.378523
2.745000 -50.484277 739.494427 -0.000000 0.437410 0.294831 -0.131710 149.761328 121.439589 -0.000000 0.146968 0.334409 -0.377628
2.750000 -56.528822 781.886682 -0.000000 0.435740 0.284726 -0.132098 143.708811 110.714264 -0.000000 0.149912 0.343433 -0.377658
2.755000 -60.077923 825.816839 -0.000000 0.433097 0.274750 -0.132224 135.941841 99.891508 -0.000000 0.153493 0.352128 -0.377636
2.760000 -58.829376 870.906789 -0.000000 0.430006 0.264720 -0.132347 126.845039 89.518989 -0.000000 0.157540 0.361095 -0.377428
2.765000 -54.884252 916.382898 -0.000000 0.426518 0.254920 -0.132386 116.412033 80.912429 -0.000000 0.162052 0.369762 -0.377334
2.770000 -48.114145 961.518427 -0.000000 0.422304 0.245562 -0.132368 105.085900 74.931505 -0.000000 0.166933 0.378190 -0.377091
2.775000 -37.673426 1005.472983 -0.000000 0.417698 0.236409 -0.132543 93.468067 72.164707 -0.000000 0.172318 0.386386 -0.376939
2.780000 -23.690535 1047.190655 -0.000000 0.412724 0.227454 -0.132701 82.122275 72.950761 -0.000000 0.177993 0.394346 -0.376606
2.785000 -5.623291 1085.478397 -0.000000 0.407209 0.218868 -0.132696 71.639140 77.119647 -0.000000 0.184164 0.402087 -0.376410
2.790000 15.719710 1119.015974 -0.000000 0.401271 0.210591 -0.133021 62.424417 84.183793 -0.000000 0.190590 0.409499 -0.376187
2.795000 40.420008 1146.470374 -0.000000 0.395070 0.202679 -0.133257 54.782948 93.289315 -0.000000 0.197376 0.416781 -0.375983
2.800000 67.809280 1166.571977 -0.000000 0.388430 0.195209 -0.133547 48.771489 103.501830 -0.000000 0.204452 0.423779 -0.375795
2.805000 97.682281 1178.172705 -0.000000 0.381482 0.188080 -0.133905 44.338070 113.918075 -0.000000 0.211834 0.430649 -0.375672
2.810000 128.239682 1180.464926 -0.000000 0.374340 0.181342 -0.134466 41.190587 123.875065 -0.000000 0.219472 0.437238 -0.375543
